<svg width="14" height="10" viewBox="0 0 14 10" fill="none" xmlns="http://www.w3.org/2000/svg">
<path id="Union" fill-rule="evenodd" clip-rule="evenodd" d="M8.21134 9.50406C8.31759 9.61031 8.45217 9.6599 8.58675 9.6599C8.72134 9.6599 8.85592 9.61031 8.96217 9.50406L13.2618 5.20448C13.4672 4.99906 13.4672 4.65906 13.2618 4.45364L8.96217 0.154061C8.75675 -0.0513557 8.41675 -0.0513557 8.21133 0.154061C8.11254 0.254034 8.05713 0.388923 8.05713 0.529478C8.05713 0.670033 8.11254 0.804922 8.21133 0.904895L11.6049 4.29842L0.843751 4.29842C0.553334 4.29842 0.312501 4.53926 0.312501 4.82967C0.312501 5.12009 0.553334 5.36092 0.843751 5.36092L11.6036 5.36092L8.21134 8.75323C8.11254 8.8532 8.05713 8.98809 8.05713 9.12865C8.05713 9.2692 8.11254 9.40409 8.21134 9.50406Z" fill="#161616"/>
</svg>
