<svg width="14" height="10" viewBox="0 0 14 10" fill="none" xmlns="http://www.w3.org/2000/svg">
<path id="Union" fill-rule="evenodd" clip-rule="evenodd" d="M5.40976 0.155848C5.30351 0.049597 5.16893 1.35935e-05 5.03434 1.35818e-05C4.89976 1.357e-05 4.76518 0.049597 4.65893 0.155848L0.359341 4.45543C0.153923 4.66085 0.153923 5.00085 0.359341 5.20626L4.65893 9.50585C4.86434 9.71127 5.20434 9.71127 5.40976 9.50585C5.50856 9.40588 5.56396 9.27099 5.56396 9.13043C5.56396 8.98988 5.50856 8.85499 5.40976 8.75502L2.01623 5.36149L12.7773 5.36149C13.0678 5.36149 13.3086 5.12066 13.3086 4.83024C13.3086 4.53982 13.0678 4.29899 12.7773 4.29899L2.01745 4.29899L5.40976 0.906679C5.50856 0.806709 5.56396 0.671819 5.56396 0.531264C5.56396 0.39071 5.50856 0.25582 5.40976 0.155848Z" fill="#161616"/>
</svg>
