<?xml version="1.0" encoding="utf-8"?>
<!-- Generator: Adobe Illustrator 17.1.0, SVG Export Plug-In . SVG Version: 6.00 Build 0)  -->
<!DOCTYPE svg PUBLIC "-//W3C//DTD SVG 1.1//EN" "http://www.w3.org/Graphics/SVG/1.1/DTD/svg11.dtd">
<svg version="1.1" id="Layer_1" xmlns="http://www.w3.org/2000/svg" xmlns:xlink="http://www.w3.org/1999/xlink" x="0px" y="0px"
	 viewBox="55.1 216.9 749.4 126.3" enable-background="new 55.1 216.9 749.4 126.3" xml:space="preserve">
<g id="Слой_x0020_2">
	<g id="_192347200">
		<path fill="#00ACCD" d="M214.1,226.8l-12.7,76.8h-9.8l12.7-76.8h-27.6l1.5-9.3H243l-1.5,9.3H214.1z M238.2,303.6l14.3-86.1h40.3
			c9,0,15.1,1.9,18.3,5.7c3.3,3.8,4.1,10.2,2.6,19.3c-0.8,4.8-1.7,8.5-2.6,11.2c-1,2.7-2.6,5-5.1,7.1c-2.4,2-6,3.5-10.8,4.3
			c9,0.7,12.6,6.1,10.9,16.4l-3.7,22.1h-9.9l3.3-19.8c0.9-5.5,0.3-9.4-1.8-11.6c-2.2-2.3-6-3.4-11.7-3.4h-29l-5.8,34.8H238.2z
			 M254.6,260.7h27.7c4.5,0,8.1-0.4,10.9-1.2c2.7-0.9,4.9-2.4,6.6-4.8c1.6-2.3,2.7-5.6,3.5-9.8c0.8-4.8,1.1-8.6,0.9-11.1
			c-0.2-2.5-1.2-4.5-3.1-5.8c-1.9-1.3-5.2-2-9.7-2h-31L254.6,260.7z M375.2,285.2h-43l-9.4,18.4h-10.3l45.5-86.1h13.7l17.3,86.1h-10
			L375.2,285.2z M374,277.5l-10.2-52.9l-27.6,52.9H374z M487.9,217.5l-14.3,86.1H458l-35-77.8l-12.9,77.8h-9.4l14.3-86.1h15.5
			l35,78.6l13.1-78.6H487.9z M557.8,241.2h-9.4c0.5-4.5,0.5-7.8-0.1-10c-0.5-2.2-1.8-3.8-3.9-4.7c-2.1-0.9-5.3-1.4-9.7-1.4h-4.9
			c-8.8,0-14.7,0.9-17.9,2.7c-3.4,1.9-5.6,5.9-6.6,11.9c-0.6,3.4-0.7,6.1-0.4,8.1c0.3,2,1.3,3.6,2.9,4.7c1.6,1.1,4.2,1.8,7.6,2
			c0.6,0.1,4.8,0.2,12.5,0.5c7.7,0.3,13.3,1,16.7,2c3.4,1,5.9,3.2,7.6,6.5c1.6,3.3,1.9,8.2,0.9,14.6c-0.8,5-2,9.2-3.3,12.6
			c-1.4,3.4-3.5,6.2-6.3,8.3c-2.9,2.2-6.8,3.5-11.7,4c-4.7,0.5-10.2,0.7-16.4,0.7c-5.2,0-9.5-0.2-12.8-0.7c-3.4-0.5-6.3-1.5-8.8-3
			c-2.4-1.5-4.1-3.9-5.1-7c-0.9-3.1-1-7.3-0.1-12.4c0.1-0.5,0.2-1.2,0.4-2c0.2-0.9,0.3-1.6,0.4-2h9.2c-0.9,5.4-1.1,9.4-0.7,12
			c0.5,2.6,1.9,4.3,4.3,5.3c2.4,1,6.3,1.5,11.7,1.5h7.9c5.2,0,9.1-0.3,11.8-1c2.7-0.7,4.8-2.2,6.3-4.4c1.5-2.3,2.7-5.8,3.5-10.7
			c0.7-4,0.9-7,0.5-9c-0.3-2-1.4-3.4-3.1-4.3c-1.7-0.8-4.5-1.3-8.3-1.5c-5.3-0.2-10.5-0.5-15.6-0.7c-5.1-0.3-9.4-1-12.8-2.3
			c-3.4-1.3-6-3.6-7.5-6.9c-1.6-3.4-1.9-8.2-0.9-14.4c1.1-6.5,3.1-11.5,5.9-14.9c2.9-3.3,6.5-5.6,10.8-6.6c4.3-1.1,9.8-1.6,16.4-1.6
			h2.2c5.3,0,9.6,0.2,13,0.6c3.4,0.4,6.3,1.3,8.7,2.7c2.4,1.4,4.1,3.7,5,6.8c1,3.1,1,7.3,0.1,12.5L557.8,241.2z"/>
		<path fill="#FBDF2E" d="M583.3,217.5l-12.8,77.1h43.2l-1.5,9h-53.5l14.3-86.1H583.3z M647.8,217.5l-14.3,86.1h-9.6l14.3-86.1
			H647.8z M735.3,217.5L721,303.6h-15.6l-35-77.8l-12.9,77.8h-9.4l14.3-86.1h15.5l35,78.6l13-78.6H735.3z M757.6,226.2l-4.8,29.1
			h43.5l-1.3,8.2h-43.5l-5.3,31.7h45.4l-1.4,8.4h-54.7l14.3-86.1h54.7l-1.4,8.7H757.6z"/>
	</g>
	<polygon fill="#00ACCD" points="152.5,279.5 68,279.5 74.8,266.6 154.5,266.6 	"/>
	<polygon fill="#00ACCD" points="156.4,255.1 80.9,255.1 88.1,241.7 158.5,241.7 	"/>
	<polygon fill="#00ACCD" points="160.4,230.2 94.2,230.2 101.3,216.9 162.5,216.9 	"/>
	<polygon fill="#00ACCD" points="148.7,302.9 55.6,302.9 61.9,291 150.6,291 	"/>
	<polygon fill="#00ACCD" points="55.1,324.8 787.3,324.8 788.8,314.8 55.1,314.8 	"/>
	<polygon fill="#FBDF2E" points="55.1,343.2 784.7,343.2 786.1,333.2 55.1,333.2 	"/>
</g>
</svg>
